<?xml version="1.0" encoding="utf-8"?>
<!-- Generator: Adobe Illustrator 26.3.1, SVG Export Plug-In . SVG Version: 6.00 Build 0)  -->
<svg version="1.1" id="Layer_1" xmlns="http://www.w3.org/2000/svg" xmlns:xlink="http://www.w3.org/1999/xlink" x="0px" y="0px"
	 viewBox="0 0 500 400" style="enable-background:new 0 0 500 400;" xml:space="preserve">
<style type="text/css">
	.st0{fill:url(#SVGID_1_);}
	.st1{fill:url(#SVGID_00000067946842362091748070000005963273770143783823_);}
	.st2{fill:url(#SVGID_00000106120453243557526870000010234622256273777072_);}
	.st3{fill:url(#SVGID_00000159466185730549184540000000796115632510501002_);}
	.st4{fill:url(#SVGID_00000072966346649706419600000005465615028165426843_);}
	.st5{fill:url(#SVGID_00000134959831809601230800000003094091492980301203_);}
	.st6{fill:url(#SVGID_00000013156918443049989080000005459744177730393231_);}
	.st7{fill:url(#SVGID_00000131342336854582366240000011929353697341727146_);}
	.st8{fill:url(#SVGID_00000013889013538311633780000008363171708211876499_);}
	.st9{fill:url(#SVGID_00000022546996547645949470000017898711245997255061_);}
	.st10{fill:url(#SVGID_00000167390925722356006490000006793045950047642525_);}
	.st11{fill:url(#SVGID_00000182491076526631719820000012127409010049471647_);}
	.st12{fill:url(#SVGID_00000068644554767279274540000001423829136149869440_);}
	.st13{fill:url(#SVGID_00000029011745412049599670000001890100595299992979_);}
	.st14{fill:url(#SVGID_00000033339963650307432690000012007466257712704927_);}
	.st15{fill:url(#SVGID_00000051364515412446103150000000180064078096470203_);}
	.st16{fill:url(#SVGID_00000164512676929014036400000000430838509496423065_);}
	.st17{fill:url(#SVGID_00000138535203748699961490000012382858999002848657_);}
	.st18{fill:url(#SVGID_00000124883933791988961190000002774633183620454018_);}
	.st19{fill:url(#SVGID_00000033330060512303356610000005991651506518077314_);}
	.st20{fill:url(#SVGID_00000169559955095921460160000017074775325276478886_);}
	.st21{fill:url(#SVGID_00000094595670641644078240000011454312886863339693_);}
	.st22{fill:url(#SVGID_00000032641823036049616040000006232484368376470166_);}
	.st23{fill:url(#SVGID_00000173126337185185213220000010227042579483168147_);}
	.st24{fill:url(#SVGID_00000000187000867560997180000007049160788110410140_);}
	.st25{fill:url(#SVGID_00000104693827804262486450000010214636559197646266_);}
	.st26{fill:url(#SVGID_00000103954415203132797770000004637210187010344613_);}
	.st27{fill:url(#SVGID_00000086693103676955771260000010912824550443990197_);}
	.st28{fill:url(#SVGID_00000029759861295644734930000015706744628623887282_);}
</style>
<g>
	<g>
		<linearGradient id="SVGID_1_" gradientUnits="userSpaceOnUse" x1="162.1768" y1="285.0029" x2="162.1768" y2="247.6385">
			<stop  offset="0" style="stop-color:#606060"/>
			<stop  offset="1" style="stop-color:#000000"/>
		</linearGradient>
		<path class="st0" d="M167,284.44l-0.61-1.89c-3.42,1.89-6.48,2.51-8.49,2.51c-5.5,0-7.76-3.97-7.76-9.04
			c0-5.99,2.75-8.37,8.86-8.37h6.42v-2.26c0-3.05-0.55-4.09-5.25-4.09c-2.63,0-5.25,0.31-8.06,0.86l-1.16-6.6
			c2.81-0.86,7.27-1.47,10.69-1.47c10.33,0,12.59,3.12,12.59,11.36v19H167z M165.41,273.75h-4.22c-1.89,0-2.63,0.49-2.63,2.14
			c0,1.65,0.67,2.32,2.38,2.32c1.83,0,3.12-0.43,4.46-1.04V273.75z"/>
		
			<linearGradient id="SVGID_00000154404827670810414910000007759012233297634975_" gradientUnits="userSpaceOnUse" x1="193.4697" y1="285.0029" x2="193.4697" y2="247.6385">
			<stop  offset="0" style="stop-color:#606060"/>
			<stop  offset="1" style="stop-color:#000000"/>
		</linearGradient>
		<path style="fill:url(#SVGID_00000154404827670810414910000007759012233297634975_);" d="M180.03,273.02v-6.9
			c0-6.11,2.87-12.04,13.44-12.04s13.44,5.93,13.44,12.04v6.9c0,6.11-2.87,12.04-13.44,12.04
			C182.9,285.05,180.03,279.13,180.03,273.02z M198.11,273.26v-7.39c0-2.81-1.47-4.4-4.64-4.4s-4.64,1.59-4.64,4.4l0,7.39
			c0,2.81,1.47,4.4,4.64,4.4S198.11,276.07,198.11,273.26z"/>
		
			<linearGradient id="SVGID_00000059309906287217427630000016680047770773027493_" gradientUnits="userSpaceOnUse" x1="256.7312" y1="285.0029" x2="256.7312" y2="247.6385">
			<stop  offset="0" style="stop-color:#606060"/>
			<stop  offset="1" style="stop-color:#000000"/>
		</linearGradient>
		<path style="fill:url(#SVGID_00000059309906287217427630000016680047770773027493_);" d="M253.13,272.65v0.86
			c0,3.42,1.34,4.34,5.38,4.34c2.75,0,6.42-0.49,9.04-1.28l1.28,6.6c-2.69,0.98-7.03,1.89-11.18,1.89c-9.65,0-13.32-4.77-13.32-12.1
			l0-6.97c0-6.42,2.87-11.91,12.77-11.91c9.9,0,12.04,5.87,12.04,12.34v6.23H253.13z M260.82,264.77c0-2.08-0.61-3.79-3.67-3.79
			s-4.03,1.71-4.03,3.79v1.28l7.7,0V264.77z"/>
		
			<linearGradient id="SVGID_00000082360961493342739200000007905214155433215672_" gradientUnits="userSpaceOnUse" x1="288.6351" y1="285.0029" x2="288.6351" y2="247.6385">
			<stop  offset="0" style="stop-color:#606060"/>
			<stop  offset="1" style="stop-color:#000000"/>
		</linearGradient>
		<path style="fill:url(#SVGID_00000082360961493342739200000007905214155433215672_);" d="M292.91,284.44v-19.67
			c0-1.34-0.61-2.14-2.14-2.14c-1.59,0-4.52,1.1-6.42,2.14v19.67h-8.8l0-29.75l6.54,0l0.92,2.26c3.67-1.77,8.43-2.87,11.85-2.87
			c5.07,0,6.84,3.79,6.84,9.53v20.83H292.91z"/>
		
			<linearGradient id="SVGID_00000165224712565547337900000012899934381010288319_" gradientUnits="userSpaceOnUse" x1="318.7708" y1="285.0029" x2="318.7708" y2="247.6385">
			<stop  offset="0" style="stop-color:#606060"/>
			<stop  offset="1" style="stop-color:#000000"/>
		</linearGradient>
		<path style="fill:url(#SVGID_00000165224712565547337900000012899934381010288319_);" d="M318.65,285.05
			c-3.24,0-7.88-0.79-10.81-1.77l1.41-6.54c2.44,0.73,5.68,1.34,8.98,1.34c2.63,0,3.05-0.73,3.05-2.51c0-1.89-0.06-2.14-4.83-3.3
			c-7.21-1.77-7.88-3.73-7.88-9.29c0-6.29,2.44-8.92,11.36-8.92c2.26,0,6.42,0.31,9.04,0.98l-0.79,6.84
			c-2.63-0.49-5.87-0.86-8.19-0.86c-2.57,0-3.18,0.67-3.18,2.02c0,1.83,0.24,2.08,3.79,2.87c8.49,1.89,9.1,3.73,9.1,9.65
			C329.71,281.69,327.14,285.05,318.65,285.05z"/>
		
			<linearGradient id="SVGID_00000070800919612721330470000014501238619523298449_" gradientUnits="userSpaceOnUse" x1="347.7419" y1="285.0029" x2="347.7419" y2="247.6385">
			<stop  offset="0" style="stop-color:#606060"/>
			<stop  offset="1" style="stop-color:#000000"/>
		</linearGradient>
		<path style="fill:url(#SVGID_00000070800919612721330470000014501238619523298449_);" d="M334.3,273.02l0-6.9
			c0-6.11,2.87-12.04,13.44-12.04s13.44,5.93,13.44,12.04l0,6.9c0,6.11-2.87,12.04-13.44,12.04S334.3,279.13,334.3,273.02z
			 M352.39,273.26v-7.39c0-2.81-1.47-4.4-4.64-4.4s-4.64,1.59-4.64,4.4v7.39c0,2.81,1.47,4.4,4.64,4.4S352.39,276.07,352.39,273.26z
			"/>
		
			<linearGradient id="SVGID_00000050665003931572946420000001764376725772285316_" gradientUnits="userSpaceOnUse" x1="375.9494" y1="285.0029" x2="375.9494" y2="247.6385">
			<stop  offset="0" style="stop-color:#606060"/>
			<stop  offset="1" style="stop-color:#000000"/>
		</linearGradient>
		<path style="fill:url(#SVGID_00000050665003931572946420000001764376725772285316_);" d="M376.41,266.3v18.15h-8.8v-29.75l7.33,0
			l0.61,2.87c1.83-1.22,5.62-2.99,8-3.48l0.73,8.31C381.66,263.42,378.3,264.95,376.41,266.3z"/>
		
			<linearGradient id="SVGID_00000049903875377306565370000006864374788878393222_" gradientUnits="userSpaceOnUse" x1="134.116" y1="285.0029" x2="134.116" y2="247.6385">
			<stop  offset="0" style="stop-color:#606060"/>
			<stop  offset="1" style="stop-color:#000000"/>
		</linearGradient>
		<path style="fill:url(#SVGID_00000049903875377306565370000006864374788878393222_);" d="M123.82,244.05
			c-4.47,0-8.11,3.64-8.11,8.11v1h13.85v24.74c0,4.47,3.63,8.1,8.09,8.11c0.02,0,0.04,0,0.08,0c0.5,0,2.53-0.11,4.3-1.85l1.55-1.53
			l-2.18-0.18c-0.28-0.02-2.74-0.31-2.74-3.3v-17.88c0-4.47-3.64-8.11-8.11-8.11h13.85c4.47,0,8.11-3.64,8.11-8.11v-1H123.82z"/>
		
			<linearGradient id="SVGID_00000047053061574603833940000015945396473269300924_" gradientUnits="userSpaceOnUse" x1="228.0061" y1="285.0029" x2="228.0061" y2="247.6385">
			<stop  offset="0" style="stop-color:#606060"/>
			<stop  offset="1" style="stop-color:#000000"/>
		</linearGradient>
		<path style="fill:url(#SVGID_00000047053061574603833940000015945396473269300924_);" d="M217.71,244.05
			c-4.47,0-8.11,3.64-8.11,8.11v1h13.85v24.74c0,4.47,3.63,8.1,8.09,8.11c0.02,0,0.04,0,0.08,0c0.5,0,2.53-0.11,4.3-1.85l1.55-1.53
			l-2.18-0.18c-0.28-0.02-2.74-0.31-2.74-3.3v-17.88c0-4.47-3.64-8.11-8.11-8.11h13.85c4.47,0,8.11-3.64,8.11-8.11v-1H217.71z"/>
	</g>
	<g>
		
			<linearGradient id="SVGID_00000152263947701138589610000007857323091974767254_" gradientUnits="userSpaceOnUse" x1="162.1768" y1="269.871" x2="162.1768" y2="288.0755">
			<stop  offset="0" style="stop-color:#606060"/>
			<stop  offset="1" style="stop-color:#000000"/>
		</linearGradient>
		<path style="fill:url(#SVGID_00000152263947701138589610000007857323091974767254_);" d="M152.16,269.71
			c-1.37,1.35-2.02,3.4-2.02,6.3c0,5.07,2.26,9.04,7.76,9.04c2.02,0,5.07-0.61,8.49-2.51l0.61,1.89h7.21v-14.74H152.16z
			 M165.41,277.17c-1.34,0.61-2.63,1.04-4.46,1.04c-1.71,0-2.38-0.67-2.38-2.32s0.73-2.14,2.63-2.14h4.22V277.17z"/>
		
			<linearGradient id="SVGID_00000093178237601404057450000013228600587103115943_" gradientUnits="userSpaceOnUse" x1="193.4697" y1="269.871" x2="193.4697" y2="288.0755">
			<stop  offset="0" style="stop-color:#606060"/>
			<stop  offset="1" style="stop-color:#000000"/>
		</linearGradient>
		<path style="fill:url(#SVGID_00000093178237601404057450000013228600587103115943_);" d="M198.11,269.71v3.55
			c0,2.81-1.47,4.4-4.64,4.4c-3.18,0-4.64-1.59-4.64-4.4v-3.55h-8.8v3.31c0,6.11,2.87,12.04,13.44,12.04
			c10.57,0,13.44-5.93,13.44-12.04v-3.31H198.11z"/>
		
			<linearGradient id="SVGID_00000139262354374981330960000007982662634578904458_" gradientUnits="userSpaceOnUse" x1="256.7312" y1="269.871" x2="256.7312" y2="288.0755">
			<stop  offset="0" style="stop-color:#606060"/>
			<stop  offset="1" style="stop-color:#000000"/>
		</linearGradient>
		<path style="fill:url(#SVGID_00000139262354374981330960000007982662634578904458_);" d="M269.13,272.65v-2.94h-24.81v3.25
			c0,7.33,3.67,12.1,13.32,12.1c4.15,0,8.49-0.92,11.18-1.89l-1.28-6.6c-2.63,0.79-6.29,1.28-9.04,1.28c-4.03,0-5.38-0.92-5.38-4.34
			v-0.86H269.13z"/>
		
			<linearGradient id="SVGID_00000165194600274770675500000008649978027619441080_" gradientUnits="userSpaceOnUse" x1="297.311" y1="269.871" x2="297.311" y2="288.0755">
			<stop  offset="0" style="stop-color:#606060"/>
			<stop  offset="1" style="stop-color:#000000"/>
		</linearGradient>
		
			<rect x="292.91" y="269.71" style="fill:url(#SVGID_00000165194600274770675500000008649978027619441080_);" width="8.8" height="14.74"/>
		
			<linearGradient id="SVGID_00000154425948409576884850000001219796714225349815_" gradientUnits="userSpaceOnUse" x1="279.9592" y1="269.871" x2="279.9592" y2="288.0755">
			<stop  offset="0" style="stop-color:#606060"/>
			<stop  offset="1" style="stop-color:#000000"/>
		</linearGradient>
		
			<rect x="275.56" y="269.71" style="fill:url(#SVGID_00000154425948409576884850000001219796714225349815_);" width="8.8" height="14.74"/>
		
			<linearGradient id="SVGID_00000034808010398007744440000005580258783744761485_" gradientUnits="userSpaceOnUse" x1="318.7708" y1="269.871" x2="318.7708" y2="288.0755">
			<stop  offset="0" style="stop-color:#606060"/>
			<stop  offset="1" style="stop-color:#000000"/>
		</linearGradient>
		<path style="fill:url(#SVGID_00000034808010398007744440000005580258783744761485_);" d="M310.41,269.71
			c1.16,1.06,3.02,1.84,6.04,2.58c4.77,1.16,4.83,1.41,4.83,3.3c0,1.77-0.43,2.51-3.05,2.51c-3.3,0-6.54-0.61-8.98-1.34l-1.41,6.54
			c2.93,0.98,7.58,1.77,10.81,1.77c8.49,0,11.06-3.36,11.06-9.47c0-2.66-0.13-4.49-1.03-5.88H310.41z"/>
		
			<linearGradient id="SVGID_00000108291335482395847250000011526917386934658485_" gradientUnits="userSpaceOnUse" x1="347.7419" y1="269.871" x2="347.7419" y2="288.0755">
			<stop  offset="0" style="stop-color:#606060"/>
			<stop  offset="1" style="stop-color:#000000"/>
		</linearGradient>
		<path style="fill:url(#SVGID_00000108291335482395847250000011526917386934658485_);" d="M352.39,269.71v3.55
			c0,2.81-1.47,4.4-4.64,4.4c-3.18,0-4.64-1.59-4.64-4.4v-3.55h-8.8v3.31c0,6.11,2.87,12.04,13.44,12.04s13.44-5.93,13.44-12.04
			v-3.31H352.39z"/>
		
			<linearGradient id="SVGID_00000169524783532732153900000005485657084971757737_" gradientUnits="userSpaceOnUse" x1="372.0086" y1="269.871" x2="372.0086" y2="288.0755">
			<stop  offset="0" style="stop-color:#606060"/>
			<stop  offset="1" style="stop-color:#000000"/>
		</linearGradient>
		
			<rect x="367.61" y="269.71" style="fill:url(#SVGID_00000169524783532732153900000005485657084971757737_);" width="8.8" height="14.74"/>
		
			<linearGradient id="SVGID_00000055698115743980360890000009217125036709573001_" gradientUnits="userSpaceOnUse" x1="136.5735" y1="269.871" x2="136.5735" y2="288.0755">
			<stop  offset="0" style="stop-color:#606060"/>
			<stop  offset="1" style="stop-color:#000000"/>
		</linearGradient>
		<path style="fill:url(#SVGID_00000055698115743980360890000009217125036709573001_);" d="M138.67,279.14v-9.44h-9.11v8.19
			c0,4.47,3.63,8.1,8.09,8.11c0.02,0,0.04,0,0.08,0c0.5,0,2.53-0.11,4.3-1.85l1.55-1.53l-2.18-0.18
			C141.13,282.43,138.67,282.13,138.67,279.14z"/>
		
			<linearGradient id="SVGID_00000147932482526442983900000006946555211460990133_" gradientUnits="userSpaceOnUse" x1="230.4636" y1="269.871" x2="230.4636" y2="288.0755">
			<stop  offset="0" style="stop-color:#606060"/>
			<stop  offset="1" style="stop-color:#000000"/>
		</linearGradient>
		<path style="fill:url(#SVGID_00000147932482526442983900000006946555211460990133_);" d="M232.56,279.14v-9.44h-9.11v8.19
			c0,4.47,3.63,8.1,8.09,8.11c0.02,0,0.04,0,0.08,0c0.5,0,2.53-0.11,4.3-1.85l1.55-1.53l-2.18-0.18
			C235.02,282.43,232.56,282.13,232.56,279.14z"/>
	</g>
	<g>
		
			<linearGradient id="SVGID_00000044139175353266854460000014754821381385831587_" gradientUnits="userSpaceOnUse" x1="281.8623" y1="139.0169" x2="233.1302" y2="201.3349">
			<stop  offset="0" style="stop-color:#606060"/>
			<stop  offset="1" style="stop-color:#000000"/>
		</linearGradient>
		<path style="fill:url(#SVGID_00000044139175353266854460000014754821381385831587_);" d="M287.08,142.66h-41.27
			c-8.87,0-16.07,7.19-16.07,16.07v0c0,8.87,7.19,16.07,16.07,16.07h41.27c8.87,0,16.07-7.19,16.07-16.07v0
			C303.15,149.86,295.95,142.66,287.08,142.66z M252.01,166.64c-4.37,0-7.91-3.54-7.91-7.91s3.54-7.91,7.91-7.91
			c4.37,0,7.91,3.54,7.91,7.91S256.38,166.64,252.01,166.64z M280.88,166.64c-4.37,0-7.91-3.54-7.91-7.91s3.54-7.91,7.91-7.91
			c4.37,0,7.91,3.54,7.91,7.91S285.25,166.64,280.88,166.64z"/>
		
			<linearGradient id="SVGID_00000098185132136421678180000001658053987038991548_" gradientUnits="userSpaceOnUse" x1="211.3309" y1="176.6737" x2="322.6722" y2="176.6737">
			<stop  offset="0" style="stop-color:#606060"/>
			<stop  offset="1" style="stop-color:#000000"/>
		</linearGradient>
		<path style="fill:url(#SVGID_00000098185132136421678180000001658053987038991548_);" d="M299.14,113.99h-42.61
			c0,9.01-4.51,16.97-11.39,21.77c7.91-2.5,12.06-6.8,14.16-10.02h41.19c10.93,0,19.78,8.86,19.78,19.78v45.74v6.14v26.74
			c0,5.43-5.93,8.77-10.57,5.96l-21.33-12.92H230c-0.2,0-0.4-0.02-0.6-0.03l-3.35,3.23c-5.96,5.84-12.78,6.29-14.72,6.29
			c0,0,10.41,2.46,19.84-3.91h53.55l25.37,15.36c5.52,3.34,12.58-0.63,12.58-7.09v-31.81v-7.31v-54.41
			C322.67,124.53,312.14,113.99,299.14,113.99z"/>
		
			<linearGradient id="SVGID_00000173868316103177360380000010359258039213577386_" gradientUnits="userSpaceOnUse" x1="249.0908" y1="197.2941" x2="284.3406" y2="197.2941">
			<stop  offset="0" style="stop-color:#606060"/>
			<stop  offset="1" style="stop-color:#000000"/>
		</linearGradient>
		<path style="fill:url(#SVGID_00000173868316103177360380000010359258039213577386_);" d="M249.09,188.66
			c0.2,9.57,8.01,17.27,17.62,17.27s17.42-7.7,17.62-17.27H249.09z"/>
		<g>
			
				<linearGradient id="SVGID_00000066475157228336099760000016661357824528530827_" gradientUnits="userSpaceOnUse" x1="150.0179" y1="126.4072" x2="236.5542" y2="211.7621">
				<stop  offset="0" style="stop-color:#606060"/>
				<stop  offset="1" style="stop-color:#000000"/>
			</linearGradient>
			<path style="fill:url(#SVGID_00000066475157228336099760000016661357824528530827_);" d="M211.13,219.96c0,0,5.46,0.3,10.22-4.37
				c0,0-10.22-0.69-10.22-12.01v-49.91c0-10.96-8.88-19.84-19.84-19.84v66.28C191.29,211.08,200.17,219.96,211.13,219.96z"/>
			
				<linearGradient id="SVGID_00000058552044482614074600000017282492388507289997_" gradientUnits="userSpaceOnUse" x1="191.2852" y1="176.8998" x2="218.7785" y2="176.8998">
				<stop  offset="0" style="stop-color:#606060"/>
				<stop  offset="1" style="stop-color:#000000"/>
			</linearGradient>
			<path style="fill:url(#SVGID_00000058552044482614074600000017282492388507289997_);" d="M203.38,198.47l-11.87-64.63
				c-0.08,0-0.15-0.01-0.23-0.01v66.28c0,10.96,8.88,19.84,19.84,19.84c0,0,3.69,0.19,7.65-2.33
				C211.33,215.22,205.12,207.95,203.38,198.47z"/>
			
				<linearGradient id="SVGID_00000161591679196355225840000011458622214439305876_" gradientUnits="userSpaceOnUse" x1="176.5085" y1="99.55" x2="263.0447" y2="184.9049">
				<stop  offset="0" style="stop-color:#606060"/>
				<stop  offset="1" style="stop-color:#000000"/>
			</linearGradient>
			<path style="fill:url(#SVGID_00000161591679196355225840000011458622214439305876_);" d="M172.47,113.99
				c-10.96,0-19.84,8.88-19.84,19.84h38.66h38.66c10.96,0,19.84-8.88,19.84-19.84H172.47z"/>
			
				<linearGradient id="SVGID_00000012464669257515517930000013920246648609022080_" gradientUnits="userSpaceOnUse" x1="152.6206" y1="125.5706" x2="249.4958" y2="125.5706">
				<stop  offset="0" style="stop-color:#606060"/>
				<stop  offset="1" style="stop-color:#000000"/>
			</linearGradient>
			<path style="fill:url(#SVGID_00000012464669257515517930000013920246648609022080_);" d="M230.77,126.9l-47.23,3.99l-30.91,2.61
				c0,0.11-0.02,0.22-0.02,0.34h38.66h38.66c9.83,0,17.96-7.15,19.55-16.53C245.48,122.5,238.72,126.22,230.77,126.9z"/>
		</g>
	</g>
	
		<linearGradient id="SVGID_00000066503645898003155680000007718662533733877637_" gradientUnits="userSpaceOnUse" x1="323.9651" y1="129.3999" x2="272.2796" y2="129.9906">
		<stop  offset="0" style="stop-color:#606060"/>
		<stop  offset="1" style="stop-color:#000000"/>
	</linearGradient>
	<path style="fill:url(#SVGID_00000066503645898003155680000007718662533733877637_);" d="M322.68,137.53v8.06
		c-1.03-30.91-66.16-31.59-66.16-31.59h42.61C312.13,114,322.68,124.52,322.68,137.53z"/>
	<g>
		
			<linearGradient id="SVGID_00000160881038432575456790000001083253294889349283_" gradientUnits="userSpaceOnUse" x1="240.1472" y1="174.2745" x2="253.0408" y2="174.2745">
			<stop  offset="0" style="stop-color:#606060"/>
			<stop  offset="1" style="stop-color:#000000"/>
		</linearGradient>
		<path style="fill:url(#SVGID_00000160881038432575456790000001083253294889349283_);" d="M245.81,174.8h7.23
			c-4.5,0-8.83-0.37-12.89-1.05C241.91,174.42,243.81,174.8,245.81,174.8z"/>
		
			<linearGradient id="SVGID_00000065769394281395699660000010352659880438514330_" gradientUnits="userSpaceOnUse" x1="253.0408" y1="158.817" x2="303.1466" y2="158.817">
			<stop  offset="0" style="stop-color:#606060"/>
			<stop  offset="1" style="stop-color:#000000"/>
		</linearGradient>
		<path style="fill:url(#SVGID_00000065769394281395699660000010352659880438514330_);" d="M289.3,142.84
			c3.46,3.12,5.45,6.72,5.45,10.57c0,11.82-18.67,21.4-41.71,21.4h34.04c8.87,0,16.07-7.19,16.07-16.07v0
			C303.15,150.61,297.12,143.92,289.3,142.84z"/>
	</g>
</g>
</svg>
